<svg xmlns:mydata="http://www.w3.org/2000/svg" mydata:contrastcolor="11111f" mydata:template="Contrast" mydata:presentation="2.5" mydata:layouttype="undefined" mydata:specialfontid="undefined" mydata:id1="934" mydata:id2="990" mydata:companyname="Danger Dodgers" mydata:companytagline="" version="1.1" xmlns="http://www.w3.org/2000/svg" xmlns:xlink="http://www.w3.org/1999/xlink" viewBox="0 0 550 470"><g fill="#babbb1" fill-rule="nonzero" stroke="none" stroke-width="1" stroke-linecap="butt" stroke-linejoin="miter" stroke-miterlimit="10" stroke-dasharray="" stroke-dashoffset="0" font-family="none" font-weight="none" font-size="none" text-anchor="none" style="mix-blend-mode: normal"><g data-paper-data="{&quot;isGlobalGroup&quot;:true}"><g data-paper-data="{&quot;stacked&quot;:true,&quot;isPrimaryText&quot;:true}"><path d="M151.97322,282.19833c0,0.1278 0.0426,0.1704 0.1704,0.1704h29.01012c1.02238,0 1.49098,0.1704 1.70397,0.46859c0.213,0.213 0.42599,0.63899 0.42599,1.66137v12.56679c0,1.66137 -0.46859,2.08737 -2.12997,2.08737h-29.01012c-0.1278,0 -0.1704,0.0426 -0.1704,0.1704v4.68592c0,0.97978 0.68159,1.66137 1.66137,1.66137h28.49893c5.45271,0 8.17907,-2.72636 8.17907,-8.22167v-13.37618c0,-5.49531 -2.72636,-8.22167 -8.17907,-8.22167h-28.49893c-0.34079,0 -0.63899,0.0852 -0.93718,0.2982l-0.34079,0.2982c-0.1278,0.1278 -0.213,0.2982 -0.2556,0.42599c-0.0426,0.0426 -0.0426,0.0852 -0.0426,0.1704c-0.0426,0.2982 -0.0852,0.42599 -0.0852,0.46859z" data-paper-data="{&quot;glyphName&quot;:&quot;d&quot;,&quot;glyphIndex&quot;:0,&quot;firstGlyphOfWord&quot;:true,&quot;word&quot;:1,&quot;line&quot;:1,&quot;firstGlyphOfFirstLine&quot;:true}" id="path-id-17064" fill="#ffffff"></path><path d="M193.29454,304.13697c0,0.55379 0.213,0.97978 0.68159,1.32058c0.34079,0.1278 0.63899,0.213 0.89459,0.213h4.38773c0.1704,0 0.46859,-0.0852 0.89459,-0.213c0.46859,-0.2982 0.72419,-0.63899 0.89459,-0.93718l2.34296,-3.57834l4.08953,-6.43249l6.81589,-10.52203c0.1278,-0.1278 0.213,-0.1278 0.34079,0l10.94802,16.95452l1.44838,2.17256l0.89459,1.40578c0.1278,0.213 0.38339,0.63899 0.89459,0.93718c0.213,0.1278 0.51119,0.213 0.85199,0.213h4.38773c0.2556,0 0.55379,-0.0852 0.89459,-0.213c0.46859,-0.34079 0.68159,-0.76679 0.68159,-1.32058c-0.0426,-0.2982 -0.1278,-0.59639 -0.2982,-0.85199l-17.03972,-26.28377c-0.38339,-0.68159 -0.97978,-1.15018 -1.78917,-1.15018h-4.08953c-0.34079,0 -0.63899,0.0852 -0.89459,0.2556c-0.46859,0.2982 -0.72419,0.63899 -0.85199,0.85199l-17.08232,26.28377c-0.1278,0.2982 -0.2982,0.55379 -0.2982,0.89459z" data-paper-data="{&quot;glyphName&quot;:&quot;a&quot;,&quot;glyphIndex&quot;:1,&quot;word&quot;:1,&quot;line&quot;:1}" id="path-id-9405" fill="#ffffff"></path><path d="M240.28157,275.85103c-0.97978,0 -1.66137,0.68159 -1.66137,1.66137v26.49677c0,0.97978 0.68159,1.66137 1.66137,1.66137h3.74874c0.38339,0 0.85199,-0.0852 1.19278,-0.46859c0.38339,-0.38339 0.46859,-0.85199 0.46859,-1.19278v-19.29748l21.59785,20.23467l0.0852,0.0852c0.2982,0.213 0.68159,0.63899 1.49098,0.63899h4.64332c0.38339,0 0.89459,-0.0852 1.23538,-0.46859c0.38339,-0.34079 0.46859,-0.80939 0.46859,-1.19278v-26.49677c0,-0.97978 -0.72419,-1.66137 -1.70397,-1.66137h-3.74874c-0.97978,0 -1.66137,0.68159 -1.66137,1.66137v19.29748l-21.55525,-20.23467c-0.0426,-0.0426 -0.0426,-0.0426 -0.0852,-0.0426c-0.2982,-0.2982 -0.68159,-0.68159 -1.49098,-0.68159z" data-paper-data="{&quot;glyphName&quot;:&quot;n&quot;,&quot;glyphIndex&quot;:2,&quot;word&quot;:1,&quot;line&quot;:1}" id="path-id-50682" fill="#ffffff"></path><path d="M280.32491,297.61928c0,5.49531 3.06715,8.22167 8.39206,8.22167h21.12925c5.32491,0 8.17907,-2.89675 8.17907,-8.22167v-6.51769c0,-1.15018 -0.68159,-1.87437 -1.83177,-1.87437h-15.46355c-1.15018,0 -1.91697,0.72419 -1.91697,1.87437v2.72636c0,1.15018 0.76679,1.87437 1.91697,1.87437h10.22383v1.49098c0,1.02238 -0.213,1.44838 -0.42599,1.66137c-0.213,0.2982 -0.68159,0.46859 -1.70397,0.46859h-19.04189c-1.06498,0 -1.61877,-0.2556 -1.91697,-0.55379c-0.2982,-0.213 -0.46859,-0.76679 -0.46859,-1.57617v-12.86499c0,-0.80939 0.1704,-1.36318 0.46859,-1.57617c0.2982,-0.2982 0.85199,-0.51119 1.91697,-0.51119h27.85994c0.213,0 0.2556,-0.0852 0.1704,-0.213c-0.55379,-4.43033 -3.74874,-6.3047 -8.00867,-6.3047h-21.08665c-5.49531,0 -8.39206,2.72636 -8.39206,8.22167z" data-paper-data="{&quot;glyphName&quot;:&quot;g&quot;,&quot;glyphIndex&quot;:3,&quot;word&quot;:1,&quot;line&quot;:1}" id="path-id-58736" fill="#ffffff"></path><path d="M323.13721,304.05177c0,0.34079 0.1278,0.80939 0.46859,1.15018c0.0426,0.1278 0.1278,0.1278 0.1704,0.1704c0.2982,0.213 0.63899,0.2982 1.02238,0.2982h31.05489c0.34079,0 0.76679,-0.0426 1.10758,-0.34079l0.1278,-0.1278c0.34079,-0.38339 0.42599,-0.85199 0.42599,-1.19278v-3.19495c0,-0.2556 0,-0.42599 -0.0426,-0.46859c-0.1278,-0.80939 -0.89459,-1.19278 -1.61877,-1.19278h-31.09749c-0.55379,0 -0.85199,0.1704 -1.23538,0.55379c-0.213,0.2982 -0.34079,0.63899 -0.34079,1.02238c-0.0426,0.0426 -0.0426,0.213 -0.0426,0.51119zM323.17981,277.38461c0,0.1704 -0.0426,0.34079 -0.0426,0.51119v2.85415c0,0.34079 0.0852,0.80939 0.46859,1.19278c0.1278,0.0426 0.0852,0.0852 0.213,0.1278c0.2982,0.2982 0.68159,0.2982 0.97978,0.2982h30.88449c0.34079,0 0.80939,-0.0852 1.19278,-0.42599c0.38339,-0.38339 0.46859,-0.85199 0.46859,-1.23538v-3.19495c0,-0.0426 -0.0426,-0.1704 -0.0852,-0.46859c-0.1278,-0.55379 -0.34079,-0.72419 -0.80939,-1.02238c-0.213,-0.1278 -0.46859,-0.1704 -0.76679,-0.1704h-30.6715c-0.34079,-0.0426 -0.85199,0.0426 -1.23538,0.38339l-0.213,0.1704c-0.2982,0.2982 -0.34079,0.68159 -0.38339,0.97978zM323.13721,292.63516c0.0426,0.38339 0.213,0.68159 0.46859,0.89459c0.0426,0.1278 0.1278,0.1278 0.1704,0.1704c0.34079,0.2982 0.72419,0.2982 1.02238,0.2982h0.51119h29.94731c1.02238,0 1.66137,-0.63899 1.66137,-1.66137v-3.15235c0,-0.2556 0,-0.42599 -0.0426,-0.46859c-0.0426,-0.2982 -0.2982,-0.76679 -0.59639,-0.89459c-0.2982,-0.2982 -0.68159,-0.2982 -0.97978,-0.2982h-30.2029c-0.38339,-0.0426 -0.89459,0 -1.27798,0.34079l-0.213,0.1704c-0.2556,0.2982 -0.38339,0.63899 -0.38339,0.93718l-0.0852,0.51119z" data-paper-data="{&quot;glyphName&quot;:&quot;e&quot;,&quot;glyphIndex&quot;:4,&quot;word&quot;:1,&quot;line&quot;:1}" id="path-id-46973" fill="#ffffff"></path><path d="M364.28814,275.85103c-0.97978,0 -1.66137,0.68159 -1.66137,1.66137v4.68592c0,0.1278 0.0426,0.1704 0.1704,0.1704h25.94297c1.06498,0 1.53357,0.1704 1.74657,0.46859c0.213,0.213 0.42599,0.63899 0.42599,1.66137v5.02672c0,1.70397 -0.46859,2.12997 -2.17256,2.12997h-15.42095c-0.1704,0 -0.2556,0.1704 -0.1278,0.2982c2.51336,2.38556 9.24405,8.90325 14.14297,13.67438c0,0.0426 0.0426,0.0426 0.1278,0.0426h9.67004c0.1278,0 0.2556,-0.1704 0.1278,-0.2982c-1.49098,-1.49098 -5.53791,-5.32491 -7.32708,-7.02888c-0.1278,-0.1278 -0.0426,-0.2982 0.1278,-0.2982c5.32491,-0.55379 7.96607,-2.51336 7.96607,-8.05127v-5.9213c0,-5.32491 -2.89675,-8.22167 -8.22167,-8.22167z" data-paper-data="{&quot;glyphName&quot;:&quot;r&quot;,&quot;glyphIndex&quot;:5,&quot;lastGlyphOfWord&quot;:true,&quot;word&quot;:1,&quot;line&quot;:1,&quot;lastGlyphOfFirstLine&quot;:true}" id="path-id-96506" fill="#ffffff"></path><path d="M130.24757,327.73598c0,0.1278 0.0426,0.1704 0.1704,0.1704h29.01012c1.02238,0 1.49098,0.1704 1.70397,0.46859c0.213,0.213 0.42599,0.63899 0.42599,1.66137v12.56679c0,1.66137 -0.46859,2.08737 -2.12997,2.08737h-29.01012c-0.1278,0 -0.1704,0.0426 -0.1704,0.1704v4.68592c0,0.97978 0.68159,1.66137 1.66137,1.66137h28.49893c5.45271,0 8.17907,-2.72636 8.17907,-8.22167v-13.37618c0,-5.49531 -2.72636,-8.22167 -8.17907,-8.22167h-28.49893c-0.34079,0 -0.63899,0.0852 -0.93718,0.2982l-0.34079,0.2982c-0.1278,0.1278 -0.213,0.2982 -0.2556,0.42599c-0.0426,0.0426 -0.0426,0.0852 -0.0426,0.1704c-0.0426,0.2982 -0.0852,0.42599 -0.0852,0.46859z" data-paper-data="{&quot;glyphName&quot;:&quot;d&quot;,&quot;glyphIndex&quot;:6,&quot;firstGlyphOfWord&quot;:true,&quot;word&quot;:2,&quot;line&quot;:2,&quot;firstGlyphOfSecondLine&quot;:true}" id="path-id-68057"></path><path d="M173.69886,343.15693c0,5.49531 3.06715,8.22167 8.39206,8.22167h20.95886c5.32491,0 8.34946,-2.89675 8.34946,-8.22167v-13.67438c0,-5.49531 -3.02455,-8.22167 -8.34946,-8.22167h-20.95886c-5.49531,0 -8.39206,2.72636 -8.39206,8.22167zM180.77034,329.86595c0,-0.80939 0.1704,-1.36318 0.46859,-1.57617c0.2982,-0.2982 0.85199,-0.51119 1.91697,-0.51119h18.82889c1.66137,0 2.34296,0.38339 2.34296,2.08737v12.86499c0,0.97978 -0.213,1.32058 -0.42599,1.61877c-0.2982,0.2982 -0.85199,0.51119 -1.91697,0.51119h-18.82889c-1.06498,0 -1.61877,-0.2556 -1.91697,-0.55379c-0.2982,-0.213 -0.46859,-0.76679 -0.46859,-1.57617z" data-paper-data="{&quot;glyphName&quot;:&quot;o&quot;,&quot;glyphIndex&quot;:7,&quot;word&quot;:2,&quot;line&quot;:2}" id="path-id-64694"></path><path d="M216.51116,327.73598c0,0.1278 0.0426,0.1704 0.1704,0.1704h29.01012c1.02238,0 1.49098,0.1704 1.70397,0.46859c0.213,0.213 0.42599,0.63899 0.42599,1.66137v12.56679c0,1.66137 -0.46859,2.08737 -2.12997,2.08737h-29.01012c-0.1278,0 -0.1704,0.0426 -0.1704,0.1704v4.68592c0,0.97978 0.68159,1.66137 1.66137,1.66137h28.49893c5.45271,0 8.17907,-2.72636 8.17907,-8.22167v-13.37618c0,-5.49531 -2.72636,-8.22167 -8.17907,-8.22167h-28.49893c-0.34079,0 -0.63899,0.0852 -0.93718,0.2982l-0.34079,0.2982c-0.1278,0.1278 -0.213,0.2982 -0.2556,0.42599c-0.0426,0.0426 -0.0426,0.0852 -0.0426,0.1704c-0.0426,0.2982 -0.0852,0.42599 -0.0852,0.46859z" data-paper-data="{&quot;glyphName&quot;:&quot;d&quot;,&quot;glyphIndex&quot;:8,&quot;word&quot;:2,&quot;line&quot;:2}" id="path-id-6701"></path><path d="M259.96245,343.15693c0,5.49531 3.06715,8.22167 8.39206,8.22167h21.12925c5.32491,0 8.17907,-2.89675 8.17907,-8.22167v-6.51769c0,-1.15018 -0.68159,-1.87437 -1.83177,-1.87437h-15.46355c-1.15018,0 -1.91697,0.72419 -1.91697,1.87437v2.72636c0,1.15018 0.76679,1.87437 1.91697,1.87437h10.22383v1.49098c0,1.02238 -0.213,1.44838 -0.42599,1.66137c-0.213,0.2982 -0.68159,0.46859 -1.70397,0.46859h-19.04189c-1.06498,0 -1.61877,-0.2556 -1.91697,-0.55379c-0.2982,-0.213 -0.46859,-0.76679 -0.46859,-1.57617v-12.86499c0,-0.80939 0.1704,-1.36318 0.46859,-1.57617c0.2982,-0.2982 0.85199,-0.51119 1.91697,-0.51119h27.85994c0.213,0 0.2556,-0.0852 0.1704,-0.213c-0.55379,-4.43033 -3.74874,-6.3047 -8.00867,-6.3047h-21.08665c-5.49531,0 -8.39206,2.72636 -8.39206,8.22167z" data-paper-data="{&quot;glyphName&quot;:&quot;g&quot;,&quot;glyphIndex&quot;:9,&quot;word&quot;:2,&quot;line&quot;:2}" id="path-id-39725"></path><path d="M302.77474,349.58942c0,0.34079 0.1278,0.80939 0.46859,1.15018c0.0426,0.1278 0.1278,0.1278 0.1704,0.1704c0.2982,0.213 0.63899,0.2982 1.02238,0.2982h31.05489c0.34079,0 0.76679,-0.0426 1.10758,-0.34079l0.1278,-0.1278c0.34079,-0.38339 0.42599,-0.85199 0.42599,-1.19278v-3.19495c0,-0.2556 0,-0.42599 -0.0426,-0.46859c-0.1278,-0.80939 -0.89459,-1.19278 -1.61877,-1.19278h-31.09749c-0.55379,0 -0.85199,0.1704 -1.23538,0.55379c-0.213,0.2982 -0.34079,0.63899 -0.34079,1.02238c-0.0426,0.0426 -0.0426,0.213 -0.0426,0.51119zM302.81734,322.92226c0,0.1704 -0.0426,0.34079 -0.0426,0.51119v2.85415c0,0.34079 0.0852,0.80939 0.46859,1.19278c0.1278,0.0426 0.0852,0.0852 0.213,0.1278c0.2982,0.2982 0.68159,0.2982 0.97978,0.2982h30.88449c0.34079,0 0.80939,-0.0852 1.19278,-0.42599c0.38339,-0.38339 0.46859,-0.85199 0.46859,-1.23538v-3.19495c0,-0.0426 -0.0426,-0.1704 -0.0852,-0.46859c-0.1278,-0.55379 -0.34079,-0.72419 -0.80939,-1.02238c-0.213,-0.1278 -0.46859,-0.1704 -0.76679,-0.1704h-30.6715c-0.34079,-0.0426 -0.85199,0.0426 -1.23538,0.38339l-0.213,0.1704c-0.2982,0.2982 -0.34079,0.68159 -0.38339,0.97978zM302.77474,338.17281c0.0426,0.38339 0.213,0.68159 0.46859,0.89459c0.0426,0.1278 0.1278,0.1278 0.1704,0.1704c0.34079,0.2982 0.72419,0.2982 1.02238,0.2982h0.51119h29.94731c1.02238,0 1.66137,-0.63899 1.66137,-1.66137v-3.15235c0,-0.2556 0,-0.42599 -0.0426,-0.46859c-0.0426,-0.2982 -0.2982,-0.76679 -0.59639,-0.89459c-0.2982,-0.2982 -0.68159,-0.2982 -0.97978,-0.2982h-30.2029c-0.38339,-0.0426 -0.89459,0 -1.27798,0.34079l-0.213,0.1704c-0.2556,0.2982 -0.38339,0.63899 -0.38339,0.93718l-0.0852,0.51119z" data-paper-data="{&quot;glyphName&quot;:&quot;e&quot;,&quot;glyphIndex&quot;:10,&quot;word&quot;:2,&quot;line&quot;:2}" id="path-id-51948"></path><path d="M343.92567,321.38869c-0.97978,0 -1.66137,0.68159 -1.66137,1.66137v4.68592c0,0.1278 0.0426,0.1704 0.1704,0.1704h25.94297c1.06498,0 1.53357,0.1704 1.74657,0.46859c0.213,0.213 0.42599,0.63899 0.42599,1.66137v5.02672c0,1.70397 -0.46859,2.12997 -2.17256,2.12997h-15.42095c-0.1704,0 -0.2556,0.1704 -0.1278,0.2982c2.51336,2.38556 9.24405,8.90325 14.14297,13.67438c0,0.0426 0.0426,0.0426 0.1278,0.0426h9.67004c0.1278,0 0.2556,-0.1704 0.1278,-0.2982c-1.49098,-1.49098 -5.53791,-5.32491 -7.32708,-7.02888c-0.1278,-0.1278 -0.0426,-0.2982 0.1278,-0.2982c5.32491,-0.55379 7.96607,-2.51336 7.96607,-8.05127v-5.9213c0,-5.32491 -2.89675,-8.22167 -8.22167,-8.22167z" data-paper-data="{&quot;glyphName&quot;:&quot;r&quot;,&quot;glyphIndex&quot;:11,&quot;word&quot;:2,&quot;line&quot;:2}" id="path-id-35147"></path><path d="M392.10548,321.09049c-5.8361,0 -9.32925,2.55596 -9.32925,8.64766c0,5.9639 3.49314,8.64766 9.24405,8.98845l17.93431,1.02238c1.32058,0.0426 1.91697,0.38339 2.25776,0.72419c0.34079,0.38339 0.51119,1.02238 0.51119,1.91697c0,1.87437 -0.80939,2.30036 -2.64116,2.30036c-3.74874,0.0426 -7.19928,0.0426 -10.60723,0.0426c-5.66571,0 -12.0982,0.0426 -14.95235,0.0426h-1.57617c-0.1278,0.0426 -0.1704,0.0852 -0.1704,0.213c0.1278,3.45054 2.93935,6.2195 6.3899,6.2195h21.25705c5.9213,0 9.32925,-2.55596 9.32925,-8.69026c0,-5.9213 -3.57834,-8.64766 -9.24405,-8.94585l-17.93431,-1.02238c-1.32058,-0.1278 -1.91697,-0.38339 -2.25776,-0.76679c-0.38339,-0.38339 -0.55379,-0.97978 -0.55379,-1.87437c0,-0.97978 0.213,-1.44838 0.51119,-1.74657c0.2982,-0.2982 0.93718,-0.55379 2.12997,-0.55379h27.17835c0.1278,0 0.1704,-0.0426 0.1704,-0.1704v-0.0426c0,-3.53574 -2.76895,-6.3047 -6.3047,-6.3047z" data-paper-data="{&quot;glyphName&quot;:&quot;s&quot;,&quot;glyphIndex&quot;:12,&quot;lastGlyphOfWord&quot;:true,&quot;word&quot;:2,&quot;line&quot;:2,&quot;lastGlyphOfSecondLine&quot;:true}" id="path-id-41594"></path></g><g data-paper-data="{&quot;isIcon&quot;:&quot;true&quot;,&quot;iconType&quot;:&quot;icon&quot;,&quot;rawIconId&quot;:&quot;108643&quot;,&quot;selectedEffects&quot;:{&quot;container&quot;:&quot;square_simple_filled_sharp_upright&quot;,&quot;transformation&quot;:&quot;&quot;,&quot;pattern&quot;:&quot;&quot;},&quot;fillRule&quot;:&quot;nonzero&quot;,&quot;relativeBoundsIconToContainer&quot;:{&quot;top&quot;:-0.000073844335791239,&quot;left&quot;:-2.2574503208720376e-16},&quot;widthRatioIconToContainer&quot;:0.8999997001779789,&quot;heightRatioIconToContainer&quot;:0.5163480941400217,&quot;bounds&quot;:{&quot;x&quot;:208.65905490416785,&quot;y&quot;:118.62140636230764,&quot;width&quot;:132.68189019166422,&quot;height&quot;:132.6818901916642},&quot;iconStyle&quot;:&quot;standalone&quot;}"><path d="M208.65905,251.3033v-132.68189h132.68189v132.68189zM333.90097,193.50835c0.16928,-0.36338 0.56426,-0.62745 0.5778,-0.84186c0.02934,-0.26859 0.03836,-0.36563 -0.1309,-1.30003c-0.1625,-0.9344 -0.19184,-0.96825 -0.3047,-1.20975c-0.09479,-0.19411 -0.55522,-0.31146 -0.83735,-0.59134c0.05102,-0.18597 0.15574,-0.35818 0.24827,-0.51098c0.09953,-0.16408 0.1853,-0.3056 0.17604,-0.41664c-0.02257,-0.26859 -0.0316,-0.36563 -0.35435,-1.26167c-0.32275,-0.89151 -0.3566,-0.91635 -0.51008,-1.13753c-0.1309,-0.17379 -0.60488,-0.2099 -0.93214,-0.43786c0.01851,-0.19163 0.09186,-0.37895 0.15686,-0.54484c0.07042,-0.18011 0.1309,-0.33449 0.10044,-0.44147c-0.06546,-0.25955 -0.09028,-0.35435 -0.56651,-1.17816c-0.47171,-0.82155 -0.51459,-0.8396 -0.70193,-1.03145c-0.15574,-0.15122 -0.62745,-0.10157 -0.99082,-0.26859c-0.01647,-0.19342 0.02325,-0.39295 0.05846,-0.56877c0.03724,-0.18733 0.06929,-0.34803 0.02279,-0.44689c-0.1106,-0.24376 -0.15122,-0.32952 -0.76287,-1.06305c-0.61164,-0.72901 -0.65002,-0.7403 -0.8712,-0.89378c-0.09209,-0.06342 -0.25842,-0.05778 -0.45072,-0.05101c-0.17063,0.00587 -0.3618,0.01241 -0.5401,-0.02798l-0.04288,-0.04288c-0.04152,-0.17988 -0.03588,-0.37173 -0.0307,-0.54236c0.00564,-0.19116 0.01038,-0.35547 -0.05281,-0.44621c-0.15122,-0.22119 -0.20764,-0.30018 -0.93665,-0.91183c-0.72675,-0.61165 -0.76963,-0.61616 -1.01114,-0.72901c-0.10314,-0.04559 -0.267,-0.01241 -0.45637,0.02618c-0.1756,0.03589 -0.37286,0.07606 -0.5638,0.06184c-0.16928,-0.36338 -0.12188,-0.83283 -0.2731,-0.98406c-0.18959,-0.19185 -0.2573,-0.26181 -1.08111,-0.73579c-0.8238,-0.47848 -0.86443,-0.47397 -1.12624,-0.54168c-0.10833,-0.02798 -0.26204,0.03295 -0.44012,0.10337c-0.16724,0.06636 -0.35615,0.14106 -0.54845,0.15844c-0.23247,-0.32952 -0.26407,-0.80123 -0.44012,-0.92311c-0.21667,-0.15799 -0.29566,-0.21216 -1.1917,-0.53716c-0.89377,-0.32501 -0.93214,-0.31824 -1.19846,-0.33403c-0.11172,-0.00925 -0.25346,0.07674 -0.41777,0.17673c-0.15438,0.09366 -0.32861,0.19951 -0.51662,0.24985c-0.28213,-0.28213 -0.39498,-0.74255 -0.58908,-0.83509c-0.24376,-0.11511 -0.32952,-0.15347 -1.26844,-0.32049c-0.87571,-0.15641 -0.96644,-0.14851 -1.1953,-0.12842c-0.01535,0.00135 -0.03137,0.00293 -0.0483,0.00429c-0.21216,0.01806 -0.47848,0.41303 -0.8396,0.58456c-0.32953,-0.23021 -0.51912,-0.6613 -0.72901,-0.71772c-0.2573,-0.07448 -0.34984,-0.09705 -1.30229,-0.09705c-0.9502,0 -0.98631,0.02258 -1.24587,0.09705c-0.20765,0.05642 -0.40175,0.48977 -0.72901,0.71772c-0.36338,-0.17379 -0.62293,-0.56651 -0.83509,-0.5778c-0.2731,-0.02934 -0.37015,-0.03611 -1.30455,0.12865c-0.93892,0.16025 -0.96149,0.1941 -1.21427,0.31146c-0.19185,0.09479 -0.30695,0.55297 -0.58908,0.83509c-0.1862,-0.05078 -0.35773,-0.15619 -0.50895,-0.24894c-0.16431,-0.10089 -0.30492,-0.18711 -0.41416,-0.17312c-0.2731,0.02031 -0.37015,0.02934 -1.26167,0.35435c-0.89603,0.31824 -0.91409,0.35209 -1.13978,0.51459c-0.16476,0.11736 -0.2099,0.53491 -0.39949,0.85314l-1.30906,-3.22526c0.22345,-0.42657 0.27987,-0.9344 0.08351,-1.41288l-4.05809,-9.89244c0.21668,-0.36113 0.4514,-0.76287 0.7245,-1.20299c0.86218,-1.41966 1.81237,-3.15529 1.84172,-5.0128c0,-0.28663 -0.04289,-0.5823 -0.10608,-0.87797c0.06545,-0.10833 0.13317,-0.21667 0.16476,-0.34758c0,0 0.00226,0 0.0158,-0.05642c0.01128,-0.05643 0.02708,-0.15799 0.02708,-0.26633c0.04515,-0.52588 -0.39272,-1.21878 -0.8396,-1.40837c-0.43335,-0.22118 -0.76061,-0.23021 -1.06305,-0.23473c-1.01565,0.01806 -2.14415,0.34758 -3.42613,0.6455c-1.25489,0.30695 -2.58652,0.58456 -3.47127,0.58005c-0.21667,0 -0.40626,-0.01806 -0.54394,-0.04514v0.00226c-0.69967,-0.12187 -1.36323,0.34307 -1.48736,1.04274c-0.12413,0.69741 0.34307,1.36323 1.04048,1.48736c0.32952,0.05643 0.6613,0.08125 0.99082,0.08125c0.70193,-0.00451 1.42868,-0.10156 2.15092,-0.23473c-0.36112,0.24602 -0.94343,0.4356 -2.05388,0.45366c-0.35886,0 -0.7719,-0.02708 -1.24361,-0.07899c-0.35209,-0.04063 -0.67033,0.21442 -0.70869,0.56877c-0.04063,0.35209 0.21216,0.67033 0.56426,0.70869c0.51234,0.05643 0.97277,0.08351 1.39257,0.08351h0.02031c1.5167,0 2.48947,-0.3882 3.0966,-0.94794c0.4672,-0.43109 0.6929,-0.90957 0.83735,-1.20299h0.01354c0.72675,-0.18282 1.43094,-0.34758 1.96585,-0.45591c0.05191,0.11736 0.08803,0.26181 0.09254,0.50105c0.0158,0.62745 -0.3521,1.69727 -0.89152,2.68809c-0.34306,0.64325 -0.73579,1.25264 -1.09013,1.76949c-0.17604,0.01128 -0.35435,0.02934 -0.52588,0.09931c-0.8396,0.34306 -1.24135,1.28423 -0.94117,2.13061c-0.00451,0.02708 -0.0158,0.03611 -0.02031,0.06545c0,0 0.05417,0.42883 0.29567,1.28198l0.2257,-0.08803l0.30695,0.74481l-30.39279,14.51253l-0.91183,-2.85962c-0.10382,-0.32952 -0.32952,-0.57554 -0.59585,-0.75384l-4.87739,-15.27765c1.0337,-0.37692 1.97488,-0.7403 2.40145,-0.7403c0.9028,0 4.5614,0.86443 6.80035,0.86443c2.23895,0 -0.72901,-2.32471 -2.49399,-2.32471h-16.35875c-0.94794,0 -0.94568,1.24813 0.25956,1.24813c1.20298,0 4.5614,1.80786 6.15484,1.80786c0.31146,0 0.68839,-0.07222 1.08562,-0.16928l4.87739,15.27765c-0.11736,0.30018 -0.15347,0.63196 -0.04739,0.96149l1.10593,3.46676l-2.93185,2.13512c-0.09705,-0.11962 -0.21667,-0.26633 -0.38369,-0.46946c-0.61164,-0.72901 -0.65002,-0.7403 -0.8712,-0.89378c-0.09209,-0.06342 -0.25842,-0.05778 -0.45072,-0.05101c-0.17063,0.00587 -0.3618,0.01241 -0.5401,-0.02798l-0.04288,-0.04288c-0.04152,-0.17988 -0.03588,-0.37173 -0.0307,-0.54236c0.00564,-0.19116 0.01038,-0.35547 -0.05281,-0.44621c-0.15122,-0.22119 -0.20764,-0.30018 -0.93665,-0.91183c-0.72675,-0.61165 -0.76963,-0.61616 -1.01114,-0.72901c-0.10314,-0.04559 -0.267,-0.01241 -0.45637,0.02618c-0.1756,0.03589 -0.37286,0.07606 -0.5638,0.06184c-0.16928,-0.36338 -0.12188,-0.83283 -0.2731,-0.98406c-0.18959,-0.19185 -0.2573,-0.26181 -1.08111,-0.73579c-0.8238,-0.47848 -0.86443,-0.47397 -1.12624,-0.54168c-0.10833,-0.02798 -0.26204,0.03295 -0.44012,0.10337c-0.16724,0.06636 -0.35615,0.14106 -0.54845,0.15844c-0.23247,-0.32952 -0.26407,-0.80123 -0.44012,-0.92311c-0.21667,-0.15799 -0.29566,-0.21216 -1.1917,-0.53716c-0.89377,-0.32501 -0.93214,-0.31824 -1.19846,-0.33403c-0.11172,-0.00925 -0.25346,0.07674 -0.41777,0.17673c-0.15438,0.09366 -0.32861,0.19951 -0.51662,0.24985c-0.28213,-0.28213 -0.39498,-0.74255 -0.58908,-0.83509c-0.24376,-0.11511 -0.32952,-0.15347 -1.26844,-0.32049c-0.87571,-0.15641 -0.96644,-0.14851 -1.1953,-0.12842c-0.01535,0.00135 -0.03137,0.00293 -0.0483,0.00429c-0.21216,0.01806 -0.47848,0.41303 -0.8396,0.58456c-0.32953,-0.23021 -0.51912,-0.6613 -0.72901,-0.71772c-0.2573,-0.07448 -0.34984,-0.09705 -1.30229,-0.09705c-0.9502,0 -0.98631,0.02258 -1.24587,0.09705c-0.20765,0.05642 -0.40175,0.48977 -0.72901,0.71772c-0.36338,-0.17379 -0.62293,-0.56651 -0.83509,-0.5778c-0.2731,-0.02934 -0.37015,-0.03611 -1.30455,0.12865c-0.93892,0.16025 -0.96149,0.1941 -1.21427,0.31146c-0.19185,0.09479 -0.30695,0.55297 -0.58908,0.83509c-0.1862,-0.05078 -0.35773,-0.15619 -0.50895,-0.24894c-0.16431,-0.10089 -0.30492,-0.18711 -0.41416,-0.17312c-0.2731,0.02031 -0.37015,0.02934 -1.26167,0.35435c-0.89603,0.31824 -0.91409,0.35209 -1.13978,0.51459c-0.17604,0.12639 -0.2099,0.60037 -0.4356,0.92311c-0.19366,-0.01738 -0.38189,-0.0914 -0.54778,-0.15664c-0.17853,-0.06996 -0.3311,-0.13 -0.43628,-0.0984c-0.26858,0.06771 -0.36112,0.09254 -1.18041,0.56877c-0.82606,0.47171 -0.8396,0.51008 -1.0337,0.70418c-0.15122,0.15122 -0.10157,0.62519 -0.26633,0.98631c-0.19455,0.01625 -0.39318,-0.02438 -0.56764,-0.06026c-0.18824,-0.03837 -0.34848,-0.07132 -0.44576,-0.02099c-0.25279,0.11511 -0.33855,0.15347 -1.06757,0.76512c-0.72901,0.60939 -0.73579,0.6455 -0.89378,0.87346c-0.06274,0.09231 -0.0571,0.2582 -0.05078,0.44914c0.00587,0.17311 0.01241,0.36698 -0.03047,0.54619c-0.00903,0.00903 -0.01806,0.02031 -0.02934,0.02934c-0.17988,0.04333 -0.37241,0.03769 -0.54372,0.0325c-0.19411,-0.00564 -0.36067,-0.01061 -0.44937,0.05778c-0.22796,0.15122 -0.30695,0.2099 -0.91635,0.9344c-0.61165,0.72675 -0.61165,0.76512 -0.72676,1.01565c-0.04649,0.10224 -0.01354,0.26475 0.0246,0.45231c0.03588,0.17694 0.07651,0.37601 0.0589,0.56786c-0.36563,0.16928 -0.83509,0.11285 -0.97728,0.26859c-0.19862,0.1941 -0.26633,0.26181 -0.74255,1.08336c-0.47848,0.82155 -0.46946,0.85992 -0.54168,1.12399c-0.02799,0.10946 0.03363,0.26452 0.10427,0.44282c0.06658,0.16747 0.14105,0.35547 0.15753,0.54575c-0.32952,0.23247 -0.80349,0.25956 -0.92086,0.43786c-0.15799,0.2257 -0.21441,0.30469 -0.53491,1.19395c-0.33178,0.89378 -0.31598,0.92989 -0.34081,1.20299c-0.00813,0.11172 0.07922,0.25414 0.17966,0.41799c0.09412,0.15347 0.19997,0.32614 0.24918,0.50963c-0.28664,0.28438 -0.74707,0.39498 -0.83058,0.59134c-0.11736,0.24602 -0.15347,0.33403 -0.32049,1.26844c-0.1612,0.86669 -0.15345,0.96238 -0.13528,1.18786c0.00142,0.01761 0.00291,0.03611 0.00438,0.05575c0.02482,0.21667 0.41981,0.483 0.58683,0.8396c-0.23247,0.32953 -0.66807,0.51912 -0.71321,0.72676c-0.07448,0.26406 -0.09705,0.3566 -0.09479,1.3068c-0.01048,0.88475 0.01408,0.97683 0.07191,1.19351c0.00442,0.0167 0.00905,0.03385 0.01386,0.05236c0.06094,0.20765 0.49655,0.404 0.72224,0.72676c-0.17153,0.36338 -0.56426,0.62745 -0.57554,0.84186c-0.02934,0.27084 -0.03836,0.36563 0.1309,1.30003c0.15799,0.93892 0.18959,0.966 0.3047,1.21202c0.09705,0.19411 0.55973,0.31146 0.8396,0.59134c-0.05191,0.18643 -0.15754,0.35863 -0.25053,0.51031c-0.10066,0.16453 -0.18666,0.30492 -0.17379,0.41281c0.02031,0.27535 0.02934,0.3724 0.35209,1.26167c0.32275,0.89603 0.3566,0.9186 0.51459,1.13978c0.12865,0.17604 0.60262,0.2099 0.92537,0.4356c-0.01828,0.1923 -0.09119,0.37895 -0.15574,0.54372c-0.07087,0.18147 -0.13136,0.33607 -0.09705,0.4426c0.06546,0.26406 0.09028,0.3566 0.56651,1.17816c0.47171,0.82606 0.51234,0.8396 0.70193,1.0337c0.15347,0.14671 0.62745,0.10157 0.98857,0.26633c0.01737,0.19478 -0.02235,0.39452 -0.05733,0.5699c-0.03769,0.18824 -0.06974,0.34871 -0.01941,0.44576c0.1106,0.25053 0.15122,0.33403 0.76512,1.06305c0.60713,0.73353 0.6455,0.7403 0.86668,0.89378c0.09344,0.06387 0.26113,0.05959 0.45479,0.05462c0.17604,-0.00451 0.37353,-0.00947 0.55635,0.03566c0.00451,0.00451 0.00903,0.00903 0.0158,0.01354c0.04469,0.18237 0.03972,0.37873 0.03521,0.55274c-0.00496,0.19455 -0.00925,0.36135 0.05733,0.44937c0.15122,0.22796 0.2099,0.3047 0.93665,0.91183c0.7245,0.61842 0.76963,0.61616 1.01339,0.73353c0.10088,0.04514 0.26181,0.01241 0.44846,-0.02551c0.17673,-0.03611 0.37624,-0.07674 0.56944,-0.06026c0.16928,0.36563 0.11962,0.83509 0.2731,0.98179c0.18733,0.19636 0.25504,0.26181 1.08111,0.73353c0.81929,0.48074 0.85992,0.47171 1.12173,0.54394c0.10766,0.02551 0.26113,-0.03453 0.43853,-0.10404c0.16815,-0.0659 0.35773,-0.14016 0.55003,-0.15777c0.23022,0.32952 0.26181,0.80349 0.43786,0.92086c0.22118,0.16025 0.30244,0.21216 1.19395,0.53491c0.89152,0.32952 0.92989,0.31824 1.20299,0.34306c0.10924,0.007 0.24805,-0.07832 0.40852,-0.17694c0.15438,-0.09479 0.32884,-0.202 0.51685,-0.25188c0.28213,0.28438 0.39498,0.74481 0.59585,0.82832c0.2415,0.11962 0.32952,0.15574 1.26392,0.32275c0.8536,0.15438 0.95922,0.14738 1.17816,0.13293c0.02122,-0.00135 0.04355,-0.00293 0.06771,-0.00429c0.21667,-0.02257 0.48074,-0.41529 0.8396,-0.58456c0.32953,0.23021 0.51912,0.6613 0.72901,0.71321c0.25955,0.07448 0.35209,0.09479 1.30003,0.09479c0.88249,0.00632 0.9766,-0.01851 1.19508,-0.07629c0.01692,-0.00451 0.0343,-0.00925 0.05304,-0.014c0.2099,-0.05869 0.39949,-0.49203 0.72224,-0.71999c0.36563,0.17153 0.6297,0.56426 0.84412,0.5778c0.26859,0.02708 0.36563,0.03385 1.30003,-0.1309c0.93665,-0.15799 0.96149,-0.19636 1.21202,-0.30695c0.19411,-0.09705 0.30921,-0.55522 0.58908,-0.83735c0.18508,0.05056 0.35593,0.15461 0.50738,0.24691c0.16612,0.10111 0.30921,0.18823 0.42251,0.17515c0.26859,-0.02031 0.36563,-0.0316 1.25489,-0.35435c0.89603,-0.32049 0.91635,-0.3566 1.14204,-0.50783c0.17379,-0.1309 0.20765,-0.60488 0.4356,-0.92989c0.19185,0.01828 0.3785,0.09119 0.54372,0.15574c0.18101,0.07042 0.3363,0.13114 0.44486,0.09931c0.26181,-0.06771 0.35209,-0.09705 1.17589,-0.56877c0.82606,-0.47171 0.8396,-0.51459 1.0337,-0.70193c0.15122,-0.15574 0.10157,-0.62519 0.26633,-0.98857c0.1932,-0.01625 0.39114,0.02392 0.56629,0.05936c0.18869,0.03815 0.35097,0.0711 0.45163,0.02189c0.24602,-0.11285 0.33403,-0.15347 1.06079,-0.76512c0.72901,-0.60939 0.73579,-0.65002 0.89603,-0.8712c0.06252,-0.09186 0.05733,-0.2573 0.05124,-0.44846c-0.00564,-0.17491 -0.01196,-0.3715 0.03227,-0.55364c0.00903,-0.00677 0.0158,-0.0158 0.02482,-0.02482c0.18033,-0.04356 0.37421,-0.03815 0.54664,-0.0334c0.19478,0.00541 0.36225,0.01016 0.4532,-0.05687c0.22345,-0.15347 0.30244,-0.2099 0.90957,-0.93665c0.61165,-0.7245 0.61165,-0.76738 0.73127,-1.00888c0.04536,-0.1045 0.01174,-0.26745 -0.02685,-0.45546c-0.03657,-0.17718 -0.07765,-0.37624 -0.06117,-0.56921c0.36563,-0.16702 0.83509,-0.11736 0.98631,-0.2731c0.19185,-0.18959 0.25956,-0.2573 0.73127,-1.08111c0.17604,-0.30244 0.27535,-0.47848 0.34758,-0.61842l8.42314,-0.66807c0.20538,0.02031 0.404,0.06093 0.61165,0.06093c3.41259,0 6.17742,-2.76709 6.17742,-6.17742c0,-1.37226 -0.46269,-2.63167 -1.2233,-3.65634l21.64917,-28.60976l1.48285,3.61798c0.1783,0.43786 0.52588,0.74481 0.93214,0.90957l1.16235,2.86414c-0.74707,0.42883 -0.78318,0.47848 -0.97051,0.66807c-0.15122,0.15122 -0.10157,0.62519 -0.26633,0.98631c-0.19455,0.01625 -0.39318,-0.02438 -0.56764,-0.06026c-0.18824,-0.03837 -0.34871,-0.07132 -0.44576,-0.02099c-0.25279,0.11511 -0.33855,0.15347 -1.06757,0.76512c-0.72901,0.60939 -0.73579,0.6455 -0.89378,0.87346c-0.06274,0.09231 -0.0571,0.2582 -0.05078,0.44914c0.00587,0.17311 0.01241,0.36698 -0.03047,0.54619c-0.00903,0.00903 -0.01806,0.02031 -0.02934,0.02934c-0.17988,0.04333 -0.37241,0.03769 -0.54372,0.0325c-0.19411,-0.00564 -0.36067,-0.01061 -0.44937,0.05778c-0.22796,0.15122 -0.30695,0.2099 -0.91635,0.9344c-0.61165,0.72675 -0.61165,0.76512 -0.72676,1.01565c-0.04649,0.10224 -0.01354,0.26475 0.0246,0.45231c0.03588,0.17694 0.07651,0.37601 0.0589,0.56786c-0.36563,0.16928 -0.83509,0.11285 -0.97728,0.26859c-0.19862,0.1941 -0.26633,0.26181 -0.74255,1.08336c-0.47848,0.82155 -0.46946,0.85992 -0.54168,1.12399c-0.02799,0.10946 0.03363,0.26452 0.10427,0.44282c0.06658,0.16747 0.14105,0.35547 0.15753,0.54575c-0.32952,0.23247 -0.80349,0.25956 -0.92086,0.43786c-0.15799,0.2257 -0.21441,0.30469 -0.53491,1.19395c-0.33178,0.89378 -0.31598,0.92989 -0.34081,1.20299c-0.00813,0.11172 0.07922,0.25414 0.17966,0.41799c0.09412,0.15347 0.19997,0.32614 0.24918,0.50963c-0.28664,0.28438 -0.74707,0.39498 -0.83058,0.59134c-0.11736,0.24602 -0.15347,0.33403 -0.32049,1.26844c-0.16115,0.86669 -0.15347,0.96238 -0.1352,1.18786c0.00135,0.01761 0.00271,0.03611 0.00429,0.05575c0.02482,0.21667 0.41981,0.483 0.58683,0.8396c-0.23247,0.32953 -0.66807,0.51912 -0.71321,0.72676c-0.07448,0.26406 -0.09705,0.3566 -0.09479,1.3068c-0.01038,0.88475 0.014,0.97683 0.072,1.19351c0.00429,0.0167 0.00903,0.03385 0.01377,0.05236c0.06094,0.20765 0.49655,0.404 0.72224,0.72676c-0.17153,0.36338 -0.56426,0.62745 -0.57554,0.84186c-0.02934,0.27084 -0.03836,0.36563 0.1309,1.30003c0.15799,0.93892 0.18959,0.966 0.3047,1.21202c0.09705,0.19411 0.55973,0.31146 0.8396,0.59134c-0.05191,0.18643 -0.15754,0.35863 -0.25053,0.51031c-0.10066,0.16453 -0.18666,0.30492 -0.17379,0.41281c0.02031,0.27535 0.02934,0.3724 0.35209,1.26167c0.32275,0.89603 0.3566,0.9186 0.51459,1.13978c0.12865,0.17604 0.60262,0.2099 0.92537,0.4356c-0.01828,0.1923 -0.09119,0.37895 -0.15574,0.54372c-0.07087,0.18147 -0.13136,0.33607 -0.09705,0.4426c0.06546,0.26406 0.09028,0.3566 0.56651,1.17816c0.47171,0.82606 0.51234,0.8396 0.70193,1.0337c0.15347,0.14671 0.62745,0.10157 0.98857,0.26633c0.01737,0.19478 -0.02235,0.39452 -0.05733,0.5699c-0.03769,0.18824 -0.06974,0.34871 -0.01941,0.44576c0.1106,0.25053 0.15122,0.33403 0.76512,1.06305c0.60713,0.73353 0.6455,0.7403 0.86668,0.89378c0.09344,0.06387 0.26113,0.05959 0.45479,0.05462c0.17604,-0.00451 0.37353,-0.00947 0.55635,0.03566c0.00451,0.00451 0.00903,0.00903 0.0158,0.01354c0.04469,0.18236 0.03972,0.37872 0.03521,0.55297c-0.00496,0.19433 -0.00925,0.36112 0.05733,0.44914c0.15122,0.22796 0.2099,0.3047 0.93665,0.91183c0.7245,0.61842 0.76963,0.61616 1.01339,0.73353c0.10088,0.04514 0.26181,0.01241 0.44846,-0.02551c0.17673,-0.03611 0.37624,-0.07674 0.56944,-0.06026c0.16928,0.36563 0.11962,0.83509 0.2731,0.98179c0.18733,0.19636 0.25504,0.26181 1.08111,0.73353c0.81929,0.48074 0.85992,0.47171 1.12173,0.54394c0.10766,0.02551 0.26136,-0.03476 0.43853,-0.10404c0.16815,-0.0659 0.35773,-0.14016 0.55003,-0.15777c0.23022,0.32952 0.26181,0.80349 0.43786,0.92086c0.22118,0.16025 0.30244,0.21216 1.19395,0.53491c0.89152,0.32952 0.92989,0.31824 1.20299,0.34306c0.10924,0.007 0.24805,-0.07832 0.40852,-0.17694c0.15438,-0.09479 0.32884,-0.202 0.51685,-0.25188c0.28213,0.28438 0.39498,0.74481 0.59585,0.82832c0.2415,0.11962 0.32952,0.15574 1.26392,0.32275c0.8536,0.15438 0.95922,0.14738 1.17816,0.13293c0.02122,-0.00135 0.04355,-0.00293 0.06771,-0.00429c0.21667,-0.02257 0.48074,-0.41529 0.8396,-0.58456c0.32953,0.23021 0.51912,0.6613 0.72901,0.71321c0.25955,0.07448 0.35209,0.09479 1.30003,0.09479c0.88249,0.00632 0.9766,-0.01851 1.19508,-0.07629c0.01692,-0.00451 0.0343,-0.00925 0.05304,-0.014c0.2099,-0.05869 0.39949,-0.49203 0.72224,-0.71999c0.36563,0.17153 0.6297,0.56426 0.84412,0.5778c0.26859,0.02708 0.36563,0.03385 1.30003,-0.1309c0.93665,-0.15799 0.96149,-0.19636 1.21202,-0.30695c0.19411,-0.09705 0.30921,-0.55522 0.58908,-0.83735c0.18508,0.05056 0.35593,0.15461 0.50738,0.24691c0.16612,0.10111 0.30921,0.18823 0.42251,0.17515c0.26859,-0.02031 0.36563,-0.0316 1.25489,-0.35435c0.89603,-0.32049 0.91635,-0.3566 1.14204,-0.50783c0.17379,-0.1309 0.20765,-0.60488 0.4356,-0.92989c0.19185,0.01828 0.37828,0.09119 0.54372,0.15574c0.18101,0.07042 0.3363,0.13114 0.44486,0.09931c0.26181,-0.06771 0.35209,-0.09705 1.17589,-0.56877c0.82606,-0.47171 0.8396,-0.51459 1.0337,-0.70193c0.15122,-0.15574 0.10157,-0.62519 0.26633,-0.98857c0.1932,-0.01625 0.39114,0.02392 0.56629,0.05936c0.18869,0.03815 0.35097,0.0711 0.45163,0.02189c0.24602,-0.11285 0.33403,-0.15347 1.06079,-0.76512c0.72901,-0.60939 0.73579,-0.65002 0.89603,-0.8712c0.06252,-0.09186 0.05733,-0.2573 0.05124,-0.44846c-0.00564,-0.17491 -0.01196,-0.3715 0.03227,-0.55364c0.00903,-0.00677 0.0158,-0.0158 0.02482,-0.02482c0.18033,-0.04356 0.37421,-0.03815 0.54664,-0.0334c0.19478,0.00541 0.36225,0.01016 0.4532,-0.05687c0.22345,-0.15347 0.30244,-0.2099 0.90957,-0.93665c0.61165,-0.7245 0.61165,-0.76738 0.73127,-1.00888c0.04536,-0.1045 0.01174,-0.26745 -0.02685,-0.45523c-0.03657,-0.1774 -0.07765,-0.37647 -0.06117,-0.56944c0.36563,-0.16702 0.83509,-0.11736 0.98631,-0.2731c0.19185,-0.18959 0.25956,-0.2573 0.73127,-1.08111c0.48074,-0.81929 0.47397,-0.86217 0.54845,-1.11947c0.02685,-0.1106 -0.03476,-0.26565 -0.10563,-0.44418c-0.06636,-0.16747 -0.14106,-0.35547 -0.15844,-0.54664c0.32952,-0.23022 0.79898,-0.26407 0.92086,-0.44012c0.15799,-0.22118 0.21441,-0.30017 0.53491,-1.18944c0.32952,-0.89378 0.31824,-0.92989 0.34306,-1.20073c0.007,-0.11239 -0.07944,-0.25324 -0.17921,-0.41596c-0.09479,-0.15438 -0.20132,-0.32839 -0.25188,-0.51618c0.28664,-0.28213 0.74481,-0.39724 0.83058,-0.59134c0.11511,-0.24376 0.15574,-0.33178 0.32049,-1.26844c0.15957,-0.87865 0.15258,-0.96509 0.13429,-1.1953c-0.00113,-0.01399 -0.00226,-0.02844 -0.00338,-0.04379c-0.02482,-0.21893 -0.41755,-0.483 -0.58683,-0.84186c0.23247,-0.32727 0.66356,-0.51912 0.71321,-0.7245c0.07223,-0.26406 0.09705,-0.3566 0.09479,-1.30906c0.01489,-0.894 -0.00632,-0.97503 -0.06568,-1.20095c-0.00338,-0.01354 -0.00722,-0.02776 -0.01106,-0.04266c-0.06094,-0.20539 -0.49655,-0.39949 -0.7245,-0.7245zM268.90159,193.74767c-0.18507,0 -0.3566,0.03836 -0.53716,0.05417l-4.64265,-14.53961l29.37489,-14.02727l-21.91324,28.95959c-0.70644,-0.28213 -1.47382,-0.44689 -2.28183,-0.44689zM242.5872,206.82474c0,-0.8238 -0.66807,-1.49413 -1.49413,-1.49413c-0.8238,0 -1.49413,0.67033 -1.49413,1.49413c0,0.8238 0.67033,1.49413 1.49413,1.49413c0.24149,0 0.46494,-0.07222 0.66807,-0.17604l9.45458,-0.74933c-3.09887,3.18463 -7.42328,5.17079 -12.21941,5.17079c-9.42299,0 -17.06068,-7.6377 -17.06068,-17.05617c0,-9.42299 7.6377,-17.06294 17.06068,-17.06294c5.28816,0 10.01206,2.40597 13.13801,6.18419l-11.7793,8.58112l-0.50783,-0.01354c-0.5146,-0.26407 -1.08788,-0.42883 -1.70855,-0.42883c-2.06741,0 -3.75114,1.68373 -3.75114,3.76017c0,2.07193 1.68372,3.74662 3.75114,3.74662c1.4332,0 2.66326,-0.80575 3.29523,-1.98164l14.04984,1.50768c-0.68161,2.62941 -1.9681,5.00829 -3.71503,6.98317l-9.38236,0.74481c0.11736,-0.21216 0.20087,-0.44462 0.20087,-0.70418zM293.97463,195.50813c0,-6.02845 3.13497,-11.31435 7.85211,-14.35002l6.94705,16.67473c0.32727,0.78769 1.08788,1.26167 1.88911,1.26167c0.26181,0 0.52813,-0.04965 0.78769,-0.15799c0.80575,-0.3363 1.27069,-1.1285 1.24587,-1.95231c0.41754,-0.16928 0.70869,-0.57554 0.70869,-1.05176c0,-0.63196 -0.51234,-1.14204 -1.14204,-1.14204c-0.10608,0 -0.20087,0.03385 -0.30018,0.06093l-6.446,-15.47401c1.73338,-0.59134 3.58412,-0.92989 5.51612,-0.92989c9.42073,0 17.05843,7.6377 17.05843,17.06294c0.00226,9.41621 -7.63544,17.05617 -17.05617,17.05617c-9.42073,0 -17.06068,-7.63769 -17.06068,-17.05842zM258.78344,182.60485c-0.00451,-0.00451 -0.02031,-0.00226 -0.02708,-0.00677l2.39242,-1.74241l4.14612,12.98454l-3.19817,-0.08125c-0.08577,-0.07448 -0.16928,-0.15574 -0.23473,-0.25053c0.16928,-0.36338 0.56426,-0.62745 0.5778,-0.84186c0.02934,-0.26859 0.03836,-0.36563 -0.1309,-1.30003c-0.1625,-0.9344 -0.19184,-0.96825 -0.3047,-1.20975c-0.09479,-0.19411 -0.55522,-0.31146 -0.83735,-0.59134c0.05102,-0.18597 0.15574,-0.35818 0.24827,-0.51098c0.09953,-0.16408 0.1853,-0.3056 0.17604,-0.41664c-0.02257,-0.26859 -0.0316,-0.36563 -0.35435,-1.26167c-0.32275,-0.89151 -0.3566,-0.91635 -0.51008,-1.13753c-0.1309,-0.17379 -0.60488,-0.2099 -0.93214,-0.43786c0.01851,-0.19163 0.09186,-0.37895 0.15686,-0.54484c0.07042,-0.17988 0.1309,-0.33449 0.10044,-0.44147c-0.06546,-0.25955 -0.09028,-0.35435 -0.56651,-1.17816c-0.47171,-0.82155 -0.51459,-0.8396 -0.70193,-1.03145zM244.05651,193.30529l9.38462,-6.83646c1.32486,2.11482 2.2096,4.53206 2.49624,7.13438zM241.61218,195.08832l1.69952,-1.2391l12.67306,0.31824c0.03611,0.44462 0.06771,0.88925 0.06771,1.34066c0,0.70193 -0.05642,1.39031 -0.13993,2.06967l-14.06112,-1.50993c-0.04288,-0.34081 -0.1151,-0.67258 -0.23924,-0.97954zM262.41721,198.27521c-0.08802,-0.20313 -0.40174,-0.44689 -0.55297,-0.76512c0.23247,-0.32727 0.66356,-0.51912 0.71321,-0.7245c0.07223,-0.26406 0.09705,-0.3566 0.09479,-1.30906c0.00677,-0.80575 -0.01354,-0.95471 -0.05868,-1.13978l2.86639,0.07222l0.10157,0.32275c-1.27972,0.8193 -2.22088,2.09676 -2.62489,3.60218l-0.53942,-0.05868zM270.17679,194.87843c0,0 0.17154,0.03837 0.40627,0.1106l-1.15559,1.52574l-0.13993,-0.7403c-0.11285,-0.59811 0.28889,-1.00211 0.88926,-0.89603zM264.49819,197.15573c0,0 0.44688,-0.83735 1.32712,-1.47833c0.0158,-0.01128 0.03385,-0.01806 0.04739,-0.02934l0.90957,2.8506l-1.7063,-0.22344c-0.60488,-0.07674 -0.86444,-0.58005 -0.5778,-1.11947zM273.25987,197.05869c0.03385,0.05417 0.0632,0.10833 0.0632,0.10833c0.28663,0.53491 0.02708,1.03371 -0.5778,1.10367l-0.44237,0.05191l0.95697,-1.26392zM273.89183,201.55463c-0.33855,1.03371 -0.99985,1.71984 -0.99985,1.71984c-0.42206,0.44012 -0.97503,0.34306 -1.23007,-0.20764l-0.76287,-1.66792c-0.25504,-0.55523 -0.02708,-1.24587 0.50783,-1.53476l1.56184,-0.85314c0.53491,-0.29566 1.04273,-0.03836 1.12624,0.56199c0,0 0.13317,0.94343 -0.20313,1.98164zM259.80136,205.21775c0,0.00001 0,0.00001 0,0.00001v0zM259.80136,205.21776c0.32952,-0.23022 0.79898,-0.26407 0.92086,-0.44012c0.15799,-0.22118 0.21441,-0.30017 0.53491,-1.18944c0.32952,-0.89378 0.31824,-0.92989 0.34306,-1.20073c0.007,-0.11239 -0.07944,-0.25324 -0.17921,-0.41596c-0.09479,-0.15438 -0.20132,-0.32839 -0.25188,-0.51618c0.28664,-0.28213 0.74481,-0.39724 0.83058,-0.59134c0.05191,-0.11285 0.09028,-0.19861 0.13317,-0.34532l0.65904,0.06996c0.24375,2.26603 1.68598,4.17545 3.70825,5.03085l-6.45276,0.51008c-0.00451,-0.22119 -0.21441,-0.55297 -0.24601,-0.91182zM266.15257,203.05329c-0.25956,0.5507 -0.82155,0.64325 -1.24361,0.20313c0,0 -0.6613,-0.68388 -0.99985,-1.71984c-0.09705,-0.30244 -0.14671,-0.58682 -0.18056,-0.85089l3.2862,0.35435c-0.00903,0.13768 -0.04063,0.27761 -0.10157,0.40627zM243.57126,202.33782c0,-0.82606 -0.66807,-1.49639 -1.49413,-1.49639c-0.8238,0 -1.49413,0.67033 -1.49413,1.49639c0,0.8238 0.67033,1.49188 1.49413,1.49188c0.82606,0 1.49413,-0.66807 1.49413,-1.49188zM266.94929,204.75055c-0.54619,-0.26633 -0.62745,-0.82155 -0.18056,-1.23232l1.34969,-1.24135c0.44914,-0.41529 1.17589,-0.40852 1.61827,0.01128l1.29552,1.22104c0.44012,0.41529 0.3566,0.97728 -0.19184,1.24135c0,0 -0.85766,0.41755 -1.94779,0.41755c-1.08788,0 -1.94328,-0.41755 -1.94328,-0.41755z" data-paper-data="{&quot;isPathIcon&quot;:true}" id="path-id-88865"></path></g></g></g><rect data-path-id="path-id-88865" class="invisible-bbox" x="209" y="119" fill="transparent" width="133" height="133"></rect><rect data-path-id="path-id-9405" class="invisible-bbox" x="193" y="276" fill="transparent" width="42" height="30"></rect><rect data-path-id="path-id-17064" class="invisible-bbox" x="152" y="276" fill="transparent" width="38" height="30"></rect><rect data-path-id="path-id-58736" class="invisible-bbox" x="280" y="276" fill="transparent" width="38" height="30"></rect><rect data-path-id="path-id-68057" class="invisible-bbox" x="130" y="321" fill="transparent" width="38" height="30"></rect><rect data-path-id="path-id-64694" class="invisible-bbox" x="174" y="321" fill="transparent" width="38" height="30"></rect><rect data-path-id="path-id-6701" class="invisible-bbox" x="217" y="321" fill="transparent" width="38" height="30"></rect><rect data-path-id="path-id-39725" class="invisible-bbox" x="260" y="321" fill="transparent" width="38" height="30"></rect><rect data-path-id="path-id-50682" class="invisible-bbox" x="239" y="276" fill="transparent" width="37" height="30"></rect><rect data-path-id="path-id-41594" class="invisible-bbox" x="383" y="321" fill="transparent" width="37" height="30"></rect><rect data-path-id="path-id-96506" class="invisible-bbox" x="363" y="276" fill="transparent" width="35" height="30"></rect><rect data-path-id="path-id-35147" class="invisible-bbox" x="342" y="321" fill="transparent" width="35" height="30"></rect><rect data-path-id="path-id-46973" class="invisible-bbox" x="323" y="276" fill="transparent" width="34" height="30"></rect><rect data-path-id="path-id-51948" class="invisible-bbox" x="303" y="321" fill="transparent" width="34" height="30"></rect></svg>